/* XPM */
static char * entryfocus_xpm[] = {
"5 5 3 1",
" 	c None",
".	c #000000",
"+	c #0076e2",
".....",
".+++.",
".+ +.",
".+++.",
"....."};
