/* XPM */
static char * scalevslider_xpm[] = {
"16 18 3 1",
" 	c None",
".	c #000000",
"+	c #0076e2",
"..........      ",
".++++++++.      ",
".++++++++.      ",
".++++++++.      ",
".++++++++.      ",
".++++++++.      ",
".++++++++.      ",
".++++++++.      ",
".++++++++.      ",
".++++++++.      ",
".++++++++.      ",
".++++++++.      ",
".++++++++.      ",
".++++++++.      ",
".++++++++.      ",
".++++++++.      ",
".++++++++.      ",
"..........      "};
