/* XPM */
static char * tabright_xpm[] = {
"6 10 2 1",
" 	c None",
".	c #0076E2",
"      ",
"      ",
"      ",
"   .. ",
"   .. ",
"   .. ",
"   .. ",
"      ",
"      ",
"      "};
