/* XPM */
static char * tabtop_xpm[] = {
"10 6 2 1",
" 	c None",
".	c #0076E2",
"          ",
"   ....   ",
"   ....   ",
"          ",
"          ",
"          "};
