#define Comment_width 10
#define Comment_height 10
static unsigned char Comment_bits[] = {
   0x78, 0x00, 0xfe, 0x01, 0xfe, 0x01, 0xff, 0x03, 0xff, 0x03, 0xff, 0x03,
   0xfe, 0x01, 0xfe, 0x01, 0x7e, 0x00, 0x0e, 0x00 };