#define Photo_width 10
#define Photo_height 10
static unsigned char Photo_bits[] = {
   0xfe, 0x01, 0x01, 0x02, 0x0d, 0x02, 0x0d, 0x02, 0x01, 0x02, 0x61, 0x02,
   0x79, 0x02, 0xfd, 0x02, 0x01, 0x02, 0xfe, 0x01 };