#define c_width 10
#define c_height 10
static unsigned char c_bits[] = {
   0xff, 0x03, 0xff, 0x03, 0x01, 0x02, 0x05, 0x02, 0x09, 0x02, 0x05, 0x02,
   0x01, 0x02, 0x01, 0x02, 0x01, 0x02, 0xff, 0x03 };