#define Lab_width 8
#define Lab_height 10
static unsigned char Lab_bits[] = {
   0x4c, 0x0c, 0x00, 0x3c, 0x18, 0x18, 0x18, 0x7e, 0xff, 0xff };