#define Cloud_width 10
#define Cloud_height 7
static unsigned char Cloud_bits[] = {
   0xf0, 0x00, 0xfc, 0x01, 0xfe, 0x01, 0xfe, 0x01, 0xff, 0x03, 0xff, 0x03,
   0xfe, 0x01 };