#define Globe_width 10
#define Globe_height 10
static unsigned char Globe_bits[] = {
   0x78, 0x00, 0x9c, 0x00, 0x82, 0x01, 0xcf, 0x03, 0xe7, 0x03, 0xe1, 0x03,
   0x9d, 0x03, 0x9a, 0x01, 0x8c, 0x00, 0x78, 0x00 };